# xmcd
#
# Track frame offsets: 
#        150
#        10202
#        21479
#        31864
#        42517
#        55637
#        70656
#        82319
#        94792
#        105130
#        115768
#        130141
#        143281
#        154400
#        164707
#        176062
#        187721
#        200249
#        212280
#        224133
#        233192
#        246790
#        257032
#        267701
#        286636
#        301719
#        311603
#        325480
#        336780
#        343840
#
# Disc length: 4743 seconds
#
# Revision: 0
# Processed by: cddbd v1.5.2PL0 Copyright (c) Steve Scherf et al.
# Submitted via: ExactAudioCopy v1.1
#
DISCID=b612851e
DTITLE=Various Artist - Rhumba Blues Gone Mambo- How Latin Music Changed Rhyt
DTITLE=hm and Blues
DYEAR=2017
DGENRE=Blues
TTITLE0=T.N.T  Tribble - Annie s Mambo
TTITLE1=Cozy Cole - Cozy's Mambo
TTITLE2=Cherokee and Band - Mamb Blues 
TTITLE3=Classie Ballou - The Crazy Mambo
TTITLE4=Billy Taylor Trio - Early Morning Mambo
TTITLE5=Lionel Richie - Hamp's Mambo
TTITLE6=Linda Hayes - I Just Want to Mambo
TTITLE7=Jimmy Forrest - Night Train Mambo
TTITLE8=J.J. Jones - Night Train Mambo
TTITLE9=The Miracletones - Mambo Train
TTITLE10=Larry Lggett - Perdido Mambo
TTITLE11=Tiny Grimes - Showboat Mambo
TTITLE12=Jack Costanzo   - Peter Gunn Mambo
TTITLE13=Ton Martinez - Robin's Mambo
TTITLE14=Big John Greer - We Want To See Santa Mambo
TTITLE15=Buddy Lucas - Mambo Blues
TTITLE16=Mickey Baker - Guitar Mambo
TTITLE17=Edna McGrif - Mambo Baby
TTITLE18=Shake Keane - Mambo Indio 
TTITLE19=Marching Mambo Manny Duran - Johnny Comes Marching Mambo
TTITLE20=Bill Doggett  - Real Gone Mambo
TTITLE21=Beat Walter Ward - Mambo Beat
TTITLE22=Chuck Higgins - Blues n' Mambo
TTITLE23=James Moody   - Mambo With Moody
TTITLE24=Yma Sumac - Bo Mambo
TTITLE25=The Bop-A-Loos - South Parkway Mambo
TTITLE26=Arcano - Goza Mi Mambo
TTITLE27=Perez Pardo - Cuban Mambo
TTITLE28=Nat Brooks - Mambo Blues
TTITLE29=Chocker Campbell  - Jackie Mambo
EXTD=
EXTT0=
EXTT1=
EXTT2=
EXTT3=
EXTT4=
EXTT5=
EXTT6=
EXTT7=
EXTT8=
EXTT9=
EXTT10=
EXTT11=
EXTT12=
EXTT13=
EXTT14=
EXTT15=
EXTT16=
EXTT17=
EXTT18=
EXTT19=
EXTT20=
EXTT21=
EXTT22=
EXTT23=
EXTT24=
EXTT25=
EXTT26=
EXTT27=
EXTT28=
EXTT29=
PLAYORDER=
